<mxfile host="app.diagrams.net" modified="2024-07-15T14:32:44.252Z" agent="Mozilla/5.0 (Macintosh; Intel Mac OS X 10_15_7) AppleWebKit/537.36 (KHTML, like Gecko) Chrome/126.0.0.0 Safari/537.36" etag="kmRFhZbgN0eJxUwt6av6" version="24.6.5" type="device">
  <diagram name="Strona-1" id="p_9NKOJqYEMBjVBSGtjx">
    <mxGraphModel dx="1590" dy="1067" grid="1" gridSize="10" guides="1" tooltips="1" connect="1" arrows="1" fold="1" page="1" pageScale="1" pageWidth="1654" pageHeight="1169" math="1" shadow="0">
      <root>
        <mxCell id="0" />
        <mxCell id="1" parent="0" />
        <mxCell id="fNrTh6jnh2dq2KH090_k-29" value="" style="group" vertex="1" connectable="0" parent="1">
          <mxGeometry x="480" y="270" width="560" height="375" as="geometry" />
        </mxCell>
        <mxCell id="fNrTh6jnh2dq2KH090_k-16" style="edgeStyle=orthogonalEdgeStyle;rounded=0;orthogonalLoop=1;jettySize=auto;html=1;exitX=0.5;exitY=0;exitDx=0;exitDy=0;entryX=0.5;entryY=1;entryDx=0;entryDy=0;" edge="1" parent="fNrTh6jnh2dq2KH090_k-29" source="fNrTh6jnh2dq2KH090_k-1" target="fNrTh6jnh2dq2KH090_k-2">
          <mxGeometry relative="1" as="geometry" />
        </mxCell>
        <mxCell id="fNrTh6jnh2dq2KH090_k-1" value="INITIAL" style="rounded=1;whiteSpace=wrap;html=1;" vertex="1" parent="fNrTh6jnh2dq2KH090_k-29">
          <mxGeometry y="314" width="120" height="60" as="geometry" />
        </mxCell>
        <mxCell id="fNrTh6jnh2dq2KH090_k-9" style="edgeStyle=orthogonalEdgeStyle;rounded=0;orthogonalLoop=1;jettySize=auto;html=1;exitX=1;exitY=0.5;exitDx=0;exitDy=0;entryX=0;entryY=0.5;entryDx=0;entryDy=0;" edge="1" parent="fNrTh6jnh2dq2KH090_k-29" source="fNrTh6jnh2dq2KH090_k-2" target="fNrTh6jnh2dq2KH090_k-4">
          <mxGeometry relative="1" as="geometry" />
        </mxCell>
        <mxCell id="fNrTh6jnh2dq2KH090_k-2" value="RANDOM TURN" style="rounded=1;whiteSpace=wrap;html=1;" vertex="1" parent="fNrTh6jnh2dq2KH090_k-29">
          <mxGeometry y="150" width="120" height="60" as="geometry" />
        </mxCell>
        <mxCell id="fNrTh6jnh2dq2KH090_k-15" style="edgeStyle=orthogonalEdgeStyle;rounded=0;orthogonalLoop=1;jettySize=auto;html=1;exitX=0.5;exitY=0;exitDx=0;exitDy=0;entryX=0.5;entryY=1;entryDx=0;entryDy=0;" edge="1" parent="fNrTh6jnh2dq2KH090_k-29" source="fNrTh6jnh2dq2KH090_k-3" target="fNrTh6jnh2dq2KH090_k-4">
          <mxGeometry relative="1" as="geometry" />
        </mxCell>
        <mxCell id="fNrTh6jnh2dq2KH090_k-3" value="U-TURN" style="rounded=1;whiteSpace=wrap;html=1;" vertex="1" parent="fNrTh6jnh2dq2KH090_k-29">
          <mxGeometry x="200" y="315" width="120" height="60" as="geometry" />
        </mxCell>
        <mxCell id="fNrTh6jnh2dq2KH090_k-10" style="edgeStyle=orthogonalEdgeStyle;rounded=0;orthogonalLoop=1;jettySize=auto;html=1;exitX=1;exitY=0.5;exitDx=0;exitDy=0;" edge="1" parent="fNrTh6jnh2dq2KH090_k-29" source="fNrTh6jnh2dq2KH090_k-4" target="fNrTh6jnh2dq2KH090_k-5">
          <mxGeometry relative="1" as="geometry" />
        </mxCell>
        <mxCell id="fNrTh6jnh2dq2KH090_k-4" value="FORWARD" style="rounded=1;whiteSpace=wrap;html=1;" vertex="1" parent="fNrTh6jnh2dq2KH090_k-29">
          <mxGeometry x="200" y="150" width="120" height="60" as="geometry" />
        </mxCell>
        <mxCell id="fNrTh6jnh2dq2KH090_k-11" style="edgeStyle=orthogonalEdgeStyle;rounded=0;orthogonalLoop=1;jettySize=auto;html=1;exitX=0.5;exitY=0;exitDx=0;exitDy=0;entryX=1;entryY=0.5;entryDx=0;entryDy=0;" edge="1" parent="fNrTh6jnh2dq2KH090_k-29" source="fNrTh6jnh2dq2KH090_k-5" target="fNrTh6jnh2dq2KH090_k-6">
          <mxGeometry relative="1" as="geometry" />
        </mxCell>
        <mxCell id="fNrTh6jnh2dq2KH090_k-14" style="edgeStyle=orthogonalEdgeStyle;rounded=0;orthogonalLoop=1;jettySize=auto;html=1;exitX=0.5;exitY=1;exitDx=0;exitDy=0;entryX=1;entryY=0.5;entryDx=0;entryDy=0;" edge="1" parent="fNrTh6jnh2dq2KH090_k-29" source="fNrTh6jnh2dq2KH090_k-5" target="fNrTh6jnh2dq2KH090_k-3">
          <mxGeometry relative="1" as="geometry" />
        </mxCell>
        <mxCell id="fNrTh6jnh2dq2KH090_k-5" value="IF" style="rounded=1;whiteSpace=wrap;html=1;" vertex="1" parent="fNrTh6jnh2dq2KH090_k-29">
          <mxGeometry x="440" y="150" width="120" height="60" as="geometry" />
        </mxCell>
        <mxCell id="fNrTh6jnh2dq2KH090_k-12" style="edgeStyle=orthogonalEdgeStyle;rounded=0;orthogonalLoop=1;jettySize=auto;html=1;exitX=0.5;exitY=1;exitDx=0;exitDy=0;entryX=0.5;entryY=0;entryDx=0;entryDy=0;" edge="1" parent="fNrTh6jnh2dq2KH090_k-29" source="fNrTh6jnh2dq2KH090_k-6" target="fNrTh6jnh2dq2KH090_k-4">
          <mxGeometry relative="1" as="geometry" />
        </mxCell>
        <mxCell id="fNrTh6jnh2dq2KH090_k-13" style="edgeStyle=orthogonalEdgeStyle;rounded=0;orthogonalLoop=1;jettySize=auto;html=1;exitX=0;exitY=0.5;exitDx=0;exitDy=0;entryX=0.5;entryY=0;entryDx=0;entryDy=0;" edge="1" parent="fNrTh6jnh2dq2KH090_k-29" source="fNrTh6jnh2dq2KH090_k-6" target="fNrTh6jnh2dq2KH090_k-2">
          <mxGeometry relative="1" as="geometry" />
        </mxCell>
        <mxCell id="fNrTh6jnh2dq2KH090_k-6" value="ELSE IF" style="rounded=1;whiteSpace=wrap;html=1;" vertex="1" parent="fNrTh6jnh2dq2KH090_k-29">
          <mxGeometry x="200" width="120" height="60" as="geometry" />
        </mxCell>
        <mxCell id="fNrTh6jnh2dq2KH090_k-17" value="&lt;font style=&quot;font-size: 14px;&quot;&gt;$$ n &amp;lt; l \land n &amp;lt; \alpha $$&lt;/font&gt;" style="text;html=1;align=center;verticalAlign=middle;whiteSpace=wrap;rounded=0;" vertex="1" parent="fNrTh6jnh2dq2KH090_k-29">
          <mxGeometry x="347" y="250" width="180" height="30" as="geometry" />
        </mxCell>
        <mxCell id="fNrTh6jnh2dq2KH090_k-18" value="&lt;span style=&quot;font-size: 14px;&quot;&gt;$$\neg ( n &amp;lt; l \land n &amp;lt; \alpha )$$&lt;/span&gt;" style="text;html=1;align=center;verticalAlign=middle;whiteSpace=wrap;rounded=0;" vertex="1" parent="fNrTh6jnh2dq2KH090_k-29">
          <mxGeometry x="370" y="80" width="120" height="30" as="geometry" />
        </mxCell>
        <mxCell id="fNrTh6jnh2dq2KH090_k-20" value="&lt;font style=&quot;font-size: 14px;&quot;&gt;$$ n &amp;gt; l $$&lt;/font&gt;" style="text;html=1;align=center;verticalAlign=middle;whiteSpace=wrap;rounded=0;" vertex="1" parent="fNrTh6jnh2dq2KH090_k-29">
          <mxGeometry x="40" width="180" height="30" as="geometry" />
        </mxCell>
        <mxCell id="fNrTh6jnh2dq2KH090_k-23" value="&lt;font style=&quot;font-size: 14px;&quot;&gt;$$\neg( n &amp;gt; l )$$&lt;/font&gt;" style="text;html=1;align=center;verticalAlign=middle;whiteSpace=wrap;rounded=0;" vertex="1" parent="fNrTh6jnh2dq2KH090_k-29">
          <mxGeometry x="130" y="80" width="180" height="30" as="geometry" />
        </mxCell>
        <mxCell id="fNrTh6jnh2dq2KH090_k-24" value="&lt;font style=&quot;font-size: 14px;&quot;&gt;$$ t &amp;lt; T&amp;nbsp; $$&lt;/font&gt;" style="text;html=1;align=center;verticalAlign=middle;whiteSpace=wrap;rounded=0;fontColor=#0000FF;" vertex="1" parent="fNrTh6jnh2dq2KH090_k-29">
          <mxGeometry x="263" y="180" width="57" height="30" as="geometry" />
        </mxCell>
        <mxCell id="fNrTh6jnh2dq2KH090_k-27" value="&lt;font style=&quot;font-size: 14px;&quot;&gt;$$ t &amp;lt; T&amp;nbsp; $$&lt;/font&gt;" style="text;html=1;align=center;verticalAlign=middle;whiteSpace=wrap;rounded=0;fontColor=#0000FF;" vertex="1" parent="fNrTh6jnh2dq2KH090_k-29">
          <mxGeometry x="63" y="344" width="57" height="30" as="geometry" />
        </mxCell>
      </root>
    </mxGraphModel>
  </diagram>
</mxfile>
